<?xml version="1.0" encoding="iso-8859-1"?>
<!-- Uploaded to: SVG Repo, www.svgrepo.com, Generator: SVG Repo Mixer Tools -->
<svg version="1.1" id="Layer_1" xmlns="http://www.w3.org/2000/svg" xmlns:xlink="http://www.w3.org/1999/xlink" 
	 viewBox="0 0 512 512" xml:space="preserve">
<path style="fill:#D7D5D9;" d="M460.036,330.322v-92.406c0-75.473-41.406-141.276-102.742-175.93L164.64,63.627
	c-26.146,10.858-49.294,31.482-49.294,31.482c-36.556,36.543-59.167,87.034-59.167,142.807v89.45l28.947-9.189v-73.502
	c0-65.079,35.937-121.764,89.051-151.291l170.171,1.307c51.842,29.873,86.741,85.853,86.741,149.984v73.332L460.036,330.322z"/>
<path style="fill:#77757E;" d="M319.09,99.239H197.124c-17.941,0-32.485-14.544-32.485-32.485V40.608
	c0-15.845,12.844-28.689,28.689-28.689h129.558c15.845,0,28.689,12.844,28.689,28.689v26.146
	C351.575,84.695,337.031,99.239,319.09,99.239z"/>
<path style="fill:#57545C;" d="M333.471,13.385c0.947,2.847,1.467,5.889,1.467,9.055v26.146c0,17.941-14.544,32.485-32.485,32.485
	H180.488c-4.245,0-8.296-0.823-12.014-2.304c4.778,11.992,16.486,20.471,30.181,20.471h121.966
	c17.941,0,32.485-14.544,32.485-32.485V40.608C353.105,27.929,344.877,17.178,333.471,13.385z"/>
<g>
	<rect x="55.999" y="275.6" style="fill:#77757E;" width="29.128" height="43.086"/>
	<rect x="430.909" y="275.6" style="fill:#77757E;" width="29.128" height="43.086"/>
</g>
<path style="fill:#FFDA44;" d="M133.43,500.081H96.425c-5.734,0-10.425-4.691-10.425-10.425V318.176
	c0-5.734,4.691-10.425,10.425-10.425h37.005c5.734,0,10.425,4.691,10.425,10.425v171.48
	C143.855,495.39,139.164,500.081,133.43,500.081z"/>
<path style="fill:#CCA400;" d="M96.165,500.081C43.054,500.081,0,457.027,0,403.917s43.054-96.165,96.165-96.165V500.081z"/>
<path style="fill:#FFDA44;" d="M368.145,318.176c0-5.734,4.691-10.425,10.425-10.425h37.005c8.723,0,10.425,4.691,10.425,10.425
	v171.48c0,5.734-1.701,10.425-10.425,10.425H378.57c-5.734,0-10.425-4.691-10.425-10.425V380.625V318.176z"/>
<path style="fill:#CCA400;" d="M415.836,307.751c53.11,0,96.164,43.054,96.164,96.165s-43.054,96.165-96.164,96.165V307.751z"/>
<g>
	<path style="opacity:0.2;fill:#891C00;enable-background:new    ;" d="M42.418,324.162c-10.36,15.344-16.41,33.839-16.41,53.746
		c0,53.11,43.054,96.165,96.165,96.165v-0.009c0.09,0.001,0.169,0.009,0.261,0.009h21.421v15.584
		c0,5.734-4.691,10.425-10.425,10.425H96.425c-0.092,0-0.171-0.008-0.261-0.009v0.009C43.054,500.081,0,457.027,0,403.917
		C0,370.714,16.828,341.441,42.418,324.162z"/>
	<path style="opacity:0.2;fill:#891C00;enable-background:new    ;" d="M469.582,324.162c10.36,15.344,16.41,33.839,16.41,53.746
		c0,53.11-43.054,96.165-96.165,96.165v-0.009c-0.09,0.001-0.169,0.009-0.261,0.009h-21.421v15.584
		c0,5.734,4.691,10.425,10.425,10.425h37.005c0.092,0,0.171-0.008,0.261-0.009v0.009c53.11,0,96.164-43.054,96.164-96.165
		C512,370.714,495.173,341.441,469.582,324.162z"/>
</g>
</svg>