<?xml version="1.0" encoding="iso-8859-1"?>
<!-- Uploaded to: SVG Repo, www.svgrepo.com, Generator: SVG Repo Mixer Tools -->
<svg fill="#000000" height="800px" width="800px" version="1.1" id="Layer_1" xmlns="http://www.w3.org/2000/svg" xmlns:xlink="http://www.w3.org/1999/xlink" 
	 viewBox="0 0 512.002 512.002" xml:space="preserve">
<g>
	<g>
		<path d="M405.248,0.327c-34.168-2.917-75.406,13.732-108.09,47.1c-21.721,22.175-35.97,47.973-42.03,72.796
			c-14.45-24.542-41.132-41.058-71.613-41.058c-9.759,0-17.671,7.912-17.671,17.671s7.912,17.671,17.671,17.671
			c24.455,0,44.661,18.495,47.393,42.23c8.213-1.083,16.588-1.65,25.093-1.65c3.445,0,6.867,0.097,10.267,0.278
			c-0.544-6.625-1.866-13.029-3.88-19.127l28.235-33.264c4.209-4.96,11.644-5.569,16.606-1.358c4.96,4.21,5.569,11.645,1.357,16.604
			l-31.524,37.139c28.107-4.62,58.241-20.371,83.334-45.989C393.079,76.002,408.872,34.428,405.248,0.327z"/>
	</g>
</g>
<g>
	<g>
		<path d="M172.234,357.831H89.226c1.575,22.383,7.634,43.587,17.286,62.436h76.997
			C177.124,400.241,173.272,379.036,172.234,357.831z"/>
	</g>
</g>
<g>
	<g>
		<path d="M339.76,357.831c-1.053,21.205-4.91,42.409-11.388,62.436h77.118c9.653-18.849,15.71-40.053,17.287-62.436H339.76z"/>
	</g>
</g>
<g>
	<g>
		<path d="M192.492,443.828h-71.587c27.729,38.875,71.049,63.858,120.463,68.164C220.861,493.588,204.289,470.923,192.492,443.828z"
			/>
	</g>
</g>
<g>
	<g>
		<path d="M271.207,178.983c20.352,18.427,36.796,42.196,48.496,68.113h71.394C363.475,209.398,320.383,183.437,271.207,178.983z"/>
	</g>
</g>
<g>
	<g>
		<path d="M405.49,270.656h-76.862c6.347,20.027,10.159,41.231,11.158,63.614h82.99C421.201,311.888,415.143,290.683,405.49,270.656
			z"/>
	</g>
</g>
<g>
	<g>
		<path d="M319.417,443.829v-0.001c-0.069,0-0.134,0.518-0.205,0.676c-11.792,26.417-28.132,49.487-47.566,67.498
			c48.993-4.568,91.913-30.476,119.452-68.173H319.417z"/>
	</g>
</g>
<g>
	<g>
		<path d="M120.905,247.096h71.866c0.115,0,0.221-0.336,0.338-0.591c11.89-26.222,28.338-49.402,47.88-67.449
			C191.733,183.46,148.563,209.398,120.905,247.096z"/>
	</g>
</g>
<g>
	<g>
		<path d="M106.512,270.656c-9.653,20.027-15.71,41.231-17.286,63.614h83.003c1.032-21.205,4.922-42.409,11.481-63.614H106.512z"/>
	</g>
</g>
<g>
	<g>
		<path d="M218.581,443.828c9.841,20.027,22.601,36.218,37.861,50.056c14.7-13.811,27.138-30.029,36.827-50.056H218.581z"/>
	</g>
</g>
<g>
	<g>
		<path d="M303.79,270.656h-95.063c-7.271,20.027-11.734,41.231-12.909,63.614h120.39
			C315.102,311.888,310.835,290.683,303.79,270.656z"/>
	</g>
</g>
<g>
	<g>
		<path d="M256.101,197.067c-14.803,13.874-27.335,31.18-37.102,50.029h74.649C283.888,228.247,271.236,210.925,256.101,197.067z"/>
	</g>
</g>
<g>
	<g>
		<path d="M195.822,357.831c1.151,22.383,5.457,43.587,12.546,62.436h95.039c7.159-20.027,11.565-41.231,12.757-62.436H195.822z"/>
	</g>
</g>
</svg>